<?xml version="1.0" encoding="utf-8"?>
<!-- Generator: Adobe Illustrator 15.0.0, SVG Export Plug-In . SVG Version: 6.00 Build 0)  -->
<svg version="1.1" id="bold" xmlns="http://www.w3.org/2000/svg" xmlns:xlink="http://www.w3.org/1999/xlink" x="0px" y="0px"
     width="233.99px" height="29.737px" viewBox="189 381.132 233.99 29.737" enable-background="new 189 381.132 233.99 29.737"
     xml:space="preserve">
<g>
	<path d="M420.535,408.959l-9.474-27.827l-9.821,27.827h-2.07v1.016h5.344v-1.016h-2.145l2.728-7.715h8.891l2.605,7.715h-3.198
		v1.016h9.596v-1.016H420.535z M405.446,400.229l4.167-12.126l4.055,12.126H405.446z"/>
    <polygon points="320.478,409.975 321.607,409.975 332.482,382.336 331.353,382.336 	"/>
    <path d="M299.123,383.352h2.182v19.098l-13.095-20.113h-6.077v1.016h2.183v25.607H280.6l-9.474-27.827l-9.821,27.827h-3.593
		v-25.607h2.182v-1.016h-5.767l-7.253,21.006l-7.601-21.006h-5.654v1.016h2.183v25.607h-4.327c-1.204-0.038-2.258-1.092-2.258-2.926
		v-4.055c0-3.076-1.017-5.691-4.13-6.548c2.728-0.818,4.6-3.434,4.6-6.199c0-3.895-2.926-6.896-8.617-6.896h-8.579v1.016h2.22
		v25.607h-4.346l-9.474-27.827l-9.821,27.827H189v1.016h5.343v-1.016h-2.145l2.729-7.715h8.89l2.615,7.715h-3.198v1.016h18.42
		v-1.016h-3.35v-13.02h2.258c3.273,0,4.948,1.327,4.948,4.525v2.38c0,5.616,3.707,7.131,5.729,7.131h7.714v-1.016h-2.183v-22.682
		l8.928,24.008l8.457-24.751v23.425h-2.183v1.016h12.597v-1.016h-2.145l2.728-7.715h8.891l2.615,7.715h-3.199v1.016h14.008v-1.016
		h-2.183v-24.206l16.99,26.116v-27.518h5.249v25.607h-2.183v1.016h7.912v-1.016h-2.183v-25.607h2.183v-1.016h-14.14v1.016H299.123z
		 M195.284,400.229l4.167-12.117l4.055,12.117H195.284z M220.562,394.932h-2.258v-11.581h1.872c3.312,0,5.532,2.107,5.532,6.04
		C225.708,391.574,223.995,394.932,220.562,394.932z M265.511,400.229l4.167-12.117l4.055,12.117H265.511z"/>
    <path d="M349.641,409.617c-6.82,0-7.206-9.125-7.206-13.443c0-3.697,0.348-13.48,7.366-13.48c3.076,0,5.842,3.782,6.161,7.874
		h0.894v-8.768h-0.931c-0.113,0.819-0.546,1.364-1.439,1.364c-1.129,0-2.455-1.477-4.676-1.477c-7.488,0-11.966,8.109-11.966,14.497
		c0,7.056,5.023,14.459,11.806,14.459c2.343,0,4.018-1.251,5.616-1.251c0.819,0,1.252,0.62,1.327,1.167h0.894v-9.512h-0.94
		C356.536,406.391,353.3,409.617,349.641,409.617z"/>
    <path d="M370.309,381.132l-9.821,27.827h-2.069v1.016h5.343v-1.016h-2.145l2.728-7.715h8.891l2.615,7.715h-3.198v1.016h9.586
		v-1.016h-2.455L370.309,381.132z M364.693,400.229l4.167-12.126l4.055,12.126H364.693z"/>
    <path d="M392.614,393.794c-4.563-1.251-6.66-3.274-6.66-6.162c0-3.077,2.38-4.949,5.108-4.949c3.706,0,6.547,3.744,6.547,7.526
		h0.895v-7.987h-0.856c-0.113,0.668-0.235,1.439-1.092,1.439c-0.978,0-2.257-1.985-5.493-1.985c-3.707,0-7.253,3.312-7.253,8.109
		c0,3.979,2.417,6.745,6.274,7.798c5.146,1.401,7.761,2.568,7.761,7.056c0,2.295-2.069,4.986-6.039,4.986
		c-1.129,0-2.258-0.349-3.236-0.895c-2.578-1.477-4.29-4.563-4.29-7.168h-0.931v9.003h0.855c0.197-0.894,0.658-1.75,1.562-1.75
		c1.524,0,2.926,1.835,6.04,1.835c6.114,0,8.26-5.184,8.26-8.73C400.055,396.758,397.411,395.158,392.614,393.794z"/>
</g>
</svg>
