<?xml version="1.0" encoding="UTF-8" standalone="no"?>
<svg
   xmlns:dc="http://purl.org/dc/elements/1.1/"
   xmlns:cc="http://creativecommons.org/ns#"
   xmlns:rdf="http://www.w3.org/1999/02/22-rdf-syntax-ns#"
   xmlns:svg="http://www.w3.org/2000/svg"
   xmlns="http://www.w3.org/2000/svg"
   height="55.400003"
   width="138"
   xml:space="preserve"
   viewBox="0 0 138 55.400003"
   y="0px"
   x="0px"
   id="Layer_1"
   version="1.1"><metadata
     id="metadata41"><rdf:RDF><cc:Work
         rdf:about=""><dc:format>image/svg+xml</dc:format><dc:type
           rdf:resource="http://purl.org/dc/dcmitype/StillImage" /><dc:title></dc:title></cc:Work></rdf:RDF></metadata><defs
     id="defs39" /><g
     transform="translate(-352.5,-269.3)"
     id="g34"><g
       id="g30"><path
         id="path2"
         d="m 381.3,318.7 h -4.5 v 5.7 h -1 V 313 h 1 v 4.9 h 4.5 V 313 h 1 v 11.4 h -1 z" /><path
         id="path4"
         d="m 386.7,315.8 c 1.9,0 2.9,1.5 2.9,4.4 0,3 -1.1,4.4 -2.9,4.4 -1.9,0 -2.9,-1.5 -2.9,-4.4 -0.1,-3 1,-4.4 2.9,-4.4 z m 0,8 c 1.1,0 1.9,-0.9 1.9,-3.6 0,-2.7 -0.8,-3.6 -1.9,-3.6 -1.1,0 -1.9,0.9 -1.9,3.6 0,2.7 0.8,3.6 1.9,3.6 z" /><path
         id="path6"
         d="m 391.4,316.7 h -1.2 v -0.8 h 1.2 v -2.4 h 1 v 2.4 h 1.5 v 0.8 h -1.5 v 6.1 c 0,0.7 0.3,0.9 0.9,0.9 0.2,0 0.4,0 0.6,-0.1 v 0.8 c -0.1,0.1 -0.4,0.1 -0.7,0.1 -1.3,0 -1.8,-0.4 -1.8,-1.5 z" /><path
         id="path8"
         d="m 400.2,321.6 c -0.1,1.8 -1.1,3 -2.7,3 -1.8,0 -2.8,-1.2 -2.8,-4.4 0,-2.9 1.1,-4.4 2.9,-4.4 1.9,0 2.7,1.3 2.7,4.1 v 0.4 h -4.6 v 0.4 c 0,2.4 0.9,3.2 1.8,3.2 1,0 1.6,-0.7 1.8,-2.2 h 0.9 z m -1,-2.2 c 0,-2.1 -0.6,-2.9 -1.8,-2.9 -1.2,0 -1.8,0.8 -1.8,2.9 z" /><path
         id="path10"
         d="m 401.8,313 h 1 v 11.4 h -1 z" /><path
         id="path12"
         d="m 406,320.2 c -1.2,-0.5 -1.6,-1.2 -1.6,-2 0,-1.7 1.1,-2.4 2.5,-2.4 1.6,0 2.3,0.8 2.3,2.4 v 0.2 h -1 v -0.2 c 0,-1.1 -0.5,-1.6 -1.4,-1.6 -1.1,0 -1.6,0.6 -1.6,1.4 0,0.6 0.2,1.1 1.2,1.4 l 1.4,0.5 c 1.2,0.4 1.6,1.2 1.6,2.2 0,1.5 -0.8,2.5 -2.6,2.5 -1.7,0 -2.6,-0.7 -2.6,-2.6 v -0.3 h 1 v 0.2 c 0,1.2 0.5,1.9 1.6,1.9 1,0 1.7,-0.6 1.7,-1.5 0,-0.8 -0.3,-1.2 -1.2,-1.6 z" /><path
         id="path14"
         d="m 420.4,323.1 c -0.6,1 -1.6,1.6 -3,1.6 -2,0 -3.2,-1.3 -3.2,-3 0,-1.2 0.6,-2.1 1.6,-2.9 l 0.9,-0.7 c -0.8,-1.1 -1.3,-1.9 -1.3,-2.8 0,-1.4 1.1,-2.1 2.3,-2.1 1.3,0 2.2,0.8 2.2,2.1 0,0.9 -0.4,1.8 -2,2.9 l 2.5,3.5 c 0.3,-0.7 0.4,-1.5 0.4,-2.2 h 1 c 0,1 -0.3,2 -0.8,3 l 1.5,2.1 h -1.1 z m -3.2,-4.5 c -1.6,1.1 -2,2 -2,2.9 0,1.4 1.1,2.3 2.3,2.3 0.9,0 2,-0.6 2.4,-1.4 z m 0.3,-1.2 c 1.3,-1 1.5,-1.7 1.5,-2.3 0,-0.7 -0.6,-1.3 -1.3,-1.3 -0.8,0 -1.3,0.5 -1.3,1.3 0,0.6 0.4,1.5 1.1,2.3 z" /><path
         id="path16"
         d="m 427.1,313 h 3.4 c 1.9,0 3,1.1 3,2.9 0,1.4 -0.5,2.6 -2.1,2.9 v 0 c 1.4,0.1 1.9,0.9 2,2.7 v 1.2 c 0,0.6 0.1,1.2 0.5,1.7 h -1.2 c -0.2,-0.4 -0.3,-1 -0.3,-1.6 v -1 c -0.1,-2 -0.4,-2.7 -2.3,-2.7 h -1.9 v 5.2 h -1 V 313 Z m 1.1,5.4 h 1.8 c 1.6,0 2.6,-0.7 2.6,-2.2 0,-1.4 -0.6,-2.2 -2.4,-2.2 h -1.9 v 4.4 z" /><path
         id="path18"
         d="m 440.3,321.6 c -0.1,1.8 -1.1,3 -2.7,3 -1.8,0 -2.8,-1.2 -2.8,-4.4 0,-2.9 1.1,-4.4 2.9,-4.4 1.9,0 2.7,1.3 2.7,4.1 v 0.4 h -4.6 v 0.4 c 0,2.4 0.9,3.2 1.8,3.2 1,0 1.6,-0.7 1.8,-2.2 h 0.9 z m -1,-2.2 c 0,-2.1 -0.6,-2.9 -1.8,-2.9 -1.2,0 -1.8,0.8 -1.8,2.9 z" /><path
         id="path20"
         d="m 443.1,320.2 c -1.2,-0.5 -1.6,-1.2 -1.6,-2 0,-1.7 1.1,-2.4 2.5,-2.4 1.6,0 2.3,0.8 2.3,2.4 v 0.2 h -1 v -0.2 c 0,-1.1 -0.5,-1.6 -1.4,-1.6 -1.1,0 -1.6,0.6 -1.6,1.4 0,0.6 0.2,1.1 1.2,1.4 l 1.4,0.5 c 1.2,0.4 1.6,1.2 1.6,2.2 0,1.5 -0.8,2.5 -2.6,2.5 -1.7,0 -2.6,-0.7 -2.6,-2.6 v -0.3 h 1 v 0.2 c 0,1.2 0.5,1.9 1.6,1.9 1,0 1.7,-0.6 1.7,-1.5 0,-0.8 -0.3,-1.2 -1.2,-1.6 z" /><path
         id="path22"
         d="m 450.4,315.8 c 1.9,0 2.9,1.5 2.9,4.4 0,3 -1.1,4.4 -2.9,4.4 -1.9,0 -2.9,-1.5 -2.9,-4.4 0,-3 1,-4.4 2.9,-4.4 z m 0,8 c 1.1,0 1.9,-0.9 1.9,-3.6 0,-2.7 -0.8,-3.6 -1.9,-3.6 -1.1,0 -1.9,0.9 -1.9,3.6 0,2.7 0.8,3.6 1.9,3.6 z" /><path
         id="path24"
         d="m 454.7,315.9 h 1 v 1.3 0 c 0.4,-0.9 1.2,-1.5 2.1,-1.5 0.1,0 0.2,0 0.3,0 v 1 c -0.2,0 -0.3,0 -0.5,0 -1.1,0 -2,0.8 -2,2.4 v 5.3 h -1 v -8.5 z" /><path
         id="path26"
         d="m 459.6,316.7 h -1.2 v -0.8 h 1.2 v -2.4 h 1 v 2.4 h 1.5 v 0.8 h -1.5 v 6.1 c 0,0.7 0.3,0.9 0.9,0.9 0.2,0 0.4,0 0.6,-0.1 v 0.8 c -0.1,0.1 -0.4,0.1 -0.7,0.1 -1.3,0 -1.8,-0.4 -1.8,-1.5 z" /><path
         id="path28"
         d="m 464.5,320.2 c -1.2,-0.5 -1.6,-1.2 -1.6,-2 0,-1.7 1.1,-2.4 2.5,-2.4 1.6,0 2.3,0.8 2.3,2.4 v 0.2 h -1 v -0.2 c 0,-1.1 -0.5,-1.6 -1.4,-1.6 -1.1,0 -1.6,0.6 -1.6,1.4 0,0.6 0.2,1.1 1.2,1.4 l 1.4,0.5 c 1.2,0.4 1.6,1.2 1.6,2.2 0,1.5 -0.8,2.5 -2.6,2.5 -1.7,0 -2.6,-0.7 -2.6,-2.6 v -0.3 h 1 v 0.2 c 0,1.2 0.5,1.9 1.6,1.9 1,0 1.7,-0.6 1.7,-1.5 0,-0.8 -0.3,-1.2 -1.2,-1.6 z" /></g><path
       id="path32"
       d="m 490.4,271.8 v -1.1 h -15.6 v 1.1 h 2.4 v 21.3 l -14.5,-22.4 h -6.8 v 1.1 h 2.4 v 28.5 h -4.2 l -10.5,-31 -10.9,31 h -4 v -28.5 h 2.4 v -1.1 h -6.4 l -8.1,23.4 -8.5,-23.4 H 402 v 1.1 h 2.4 v 28.5 h -4.8 c -1.4,0 -2.5,-1.2 -2.5,-3.3 v -4.5 c 0,-3.4 -1.1,-6.3 -4.6,-7.3 3,-0.9 5.1,-3.8 5.1,-6.8 0,-4.4 -3.3,-7.7 -9.6,-7.7 h -9.5 v 1.1 h 2.4 v 28.5 H 376 l -10.5,-31 -10.9,31 h -2.1 v 1.1 h 6.1 v -1.1 h -2.7 l 3,-8.6 h 9.9 l 2.9,8.6 H 368 v 1.1 h 20.6 v -1.1 h -3.7 v -14.5 h 2.5 c 3.7,0 5.5,1.5 5.5,5.1 v 2.6 c 0,6.3 4.1,7.9 6.4,7.9 h 8.8 v -1.1 h -2.6 v -25.2 l 9.9,26.7 9.4,-27.5 v 26 h -2.4 v 1.1 h 14.3 v -1.1 H 434 l 3,-8.6 h 9.9 l 2.9,8.6 h -3.7 v 1.1 h 15.8 v -1.1 h -2.4 v -26.9 l 18.9,29 v -30.6 h 5.7 v 28.5 h -2.4 v 1.1 h 8.8 v -1.1 H 488 v -28.5 z m -131.1,18.8 4.6,-13.5 4.5,13.5 z m 28.1,-5.9 h -2.5 v -12.9 h 2.1 c 3.7,0 6.2,2.4 6.2,6.8 -0.1,2.4 -2,6.1 -5.8,6.1 z m 50,5.9 4.6,-13.5 4.5,13.5 z" /></g></svg>
