<?xml version="1.0" encoding="utf-8"?>
<!-- Generator: Adobe Illustrator 22.0.1, SVG Export Plug-In . SVG Version: 6.00 Build 0)  -->
<svg version="1.1" id="Livello_1" xmlns="http://www.w3.org/2000/svg" xmlns:xlink="http://www.w3.org/1999/xlink" x="0px" y="0px"
	 width="393.9" height="51.7" viewBox="0 0 393.9 51.7" style="enable-background:new 0 0 393.9 51.7;" xml:space="preserve">
<g>
	<path d="M35.9,49.3c-3.3,0-9.5-2.4-9.5-12v-4.6c0-5.7-3-8.1-8.9-8.1h-4.2v23.2h5.8v1H4.2v-1h3.8V3H4.2V2h14.3
		c9.8,0,14.5,5,14.5,11.6c0,5.1-3.9,9.8-9.3,10.6c6.4,1,8.5,5.6,8.5,11.4v7.3c0,3.3,1.9,5.5,4.3,5.5c0.5,0,1.7-0.1,2.7-1.1l0.6,0.8
		C39,48.7,38.1,49.3,35.9,49.3z M16.9,3h-3.6v20.7h4.2c6.3,0,9.3-6,9.3-9.8C26.8,6.8,22.8,3,16.9,3z"/>
	<path d="M71.1,14.2c0-6.5-2-11.2-9.9-11.2h-11v21.7h3.4c5.2,0,7.6-2.6,7.6-7.2h0.9v15.3h-0.9c0-4.5-2.4-7.2-7.6-7.2h-3.4v22.2h7.7
		c11.6,0,13.2-5.6,13.2-12.5H72v13.5H40.7v-1h4.1V3h-4.1V2H72v12.2H71.1z"/>
	<path d="M89.4,50c-2.4,0-4.3-0.7-5.9-1.4c-1.3-0.5-2.6-1.7-4.7-1.7c-1.7,0-2.6,1.7-2.8,3h-0.8V35h0.9c0,3.9,2.2,8.3,5.9,11.3
		c2,1.7,4.6,2.7,7.5,2.7c7,0,10.8-4.8,10.8-9c0-8-4.8-10.1-13.6-12.5C80,25.7,76,21.1,76,14.4c0-8.1,5.9-13.5,12.1-13.5
		c5.5,0,7.6,3.4,9.5,3.4c1.8,0,2-1.8,2.2-2.5h0.8v13.1h-0.8c0-6.3-5-13-11.7-13c-4.8,0-9.1,3.4-9.1,8.9c0,5.3,3.8,8.9,11.8,11
		c8.2,2.3,12.5,5,12.5,13.5C103.2,41.3,99.7,50,89.4,50z"/>
	<path d="M137,16.2C137,7.5,135.5,3,125.2,3h-1.9v44.9h4.1v1h-13.6v-1h4.1V3H116c-8.4,0-12,4.5-12,13.2h-0.9V2H138v14.2H137z"/>
	<path d="M157.3,48.9v-1h5.9l-4.8-14.5h-15.7l-5,14.5h4.3v1h-8.7v-1h3.3L153.1,0l16.1,47.9h4.4v1H157.3z M150.6,9.9L143,32.3h15
		L150.6,9.9z"/>
	<path d="M205,3v30.5c0,9.3-4,16.5-14,16.5c-12.4,0-15.5-7.5-15.5-16.5V3h-3.8V2h12.9v1h-3.8v30.7c0,10.3,4.3,14.7,11.6,14.7
		c8.5,0,11.6-6.9,11.6-14.7V3h-3.8V2h8.5v1H205z"/>
	<path d="M242,49.3c-3.3,0-9.5-2.4-9.5-12v-4.6c0-5.7-3-8.1-8.9-8.1h-4.2v23.2h5.8v1h-14.9v-1h3.8V3h-3.8V2h14.3
		c9.8,0,14.5,5,14.5,11.6c0,5.1-3.9,9.8-9.3,10.6c6.4,1,8.5,5.6,8.5,11.4v7.3c0,3.3,1.9,5.5,4.3,5.5c0.5,0,1.7-0.1,2.7-1.1l0.6,0.8
		C245.1,48.7,244.2,49.3,242,49.3z M223,3h-3.6v20.7h4.2c6.3,0,9.3-6,9.3-9.8C232.9,6.8,228.9,3,223,3z"/>
	<path d="M270.2,48.9v-1h5.9l-4.8-14.5h-15.7l-5,14.5h4.3v1h-8.7v-1h3.3L266,0l16.1,47.9h4.4v1H270.2z M263.5,9.9l-7.6,22.4h15
		L263.5,9.9z"/>
	<path d="M321.3,3v47.5L292.1,4.5v43.4h3.7v1h-8.5v-1h3.8V3h-3.8V2h9.9l23.1,36.5V3h-3.8V2h8.5v1H321.3z"/>
	<path d="M360.4,16.2c0-8.7-1.6-13.2-11.9-13.2h-1.9v44.9h4.1v1h-13.6v-1h4.1V3h-1.9c-8.4,0-12,4.5-12,13.2h-0.9V2h34.9v14.2H360.4z
		"/>
	<path d="M377.8,50c-2.4,0-4.3-0.7-5.9-1.4c-1.3-0.5-2.6-1.7-4.7-1.7c-1.7,0-2.6,1.7-2.8,3h-0.8V35h0.9c0,3.9,2.2,8.3,5.9,11.3
		c2,1.7,4.6,2.7,7.5,2.7c7,0,10.8-4.8,10.8-9c0-8-4.8-10.1-13.6-12.5c-6.5-1.8-10.6-6.4-10.6-13.1c0-8.1,5.9-13.5,12.1-13.5
		c5.5,0,7.6,3.4,9.5,3.4c1.8,0,2-1.8,2.2-2.5h0.8v13.1h-0.8c0-6.3-5-13-11.7-13c-4.8,0-9.1,3.4-9.1,8.9c0,5.3,3.8,8.9,11.8,11
		c8.2,2.3,12.5,5,12.5,13.5C391.6,41.3,388.1,50,377.8,50z"/>
</g>
</svg>
